<?xml version="1.0" encoding="utf-8"?>
<!-- Generator: Adobe Illustrator 24.1.0, SVG Export Plug-In . SVG Version: 6.00 Build 0)  -->
<svg version="1.1" id="레이어_1" xmlns="http://www.w3.org/2000/svg" xmlns:xlink="http://www.w3.org/1999/xlink" x="0px"
	 y="0px" viewBox="0 0 240 80" style="enable-background:new 0 0 240 80;" xml:space="preserve">
<style type="text/css">
	.st0{fill:#FC0D1B;}
	.st1{fill:#FFFFFF;}
</style>
<text transform="matrix(1.0245 0 0 1 37.7132 135.8793)" class="st1" style="font-family:'HandelGothic'; font-size:42.6443px;">O</text>
<g>
	<g>
		<path d="M64.7,31.4c0.9-2.6,2.1-4.8,3.8-6.4c1.7-1.7,3.8-2.8,6.5-3.5c1-0.2,2-0.4,3-0.6c1-0.1,2.1-0.2,3.1-0.2
			c1.1,0,2.2,0,3.4,0.2c1.1,0.1,2.2,0.4,3.3,0.7c2.6,0.7,4.8,1.8,6.4,3.5c1.7,1.7,2.9,3.8,3.7,6.5c0.3,1.2,0.6,2.5,0.8,3.8
			c0.2,1.3,0.3,2.7,0.3,4c0,1.4-0.1,2.8-0.2,4.2c-0.2,1.4-0.4,2.7-0.8,3.9c-0.8,2.7-2,4.9-3.7,6.5c-1.7,1.7-3.9,2.8-6.6,3.4
			c-1,0.3-2.1,0.5-3.2,0.6c-1.1,0.1-2.2,0.2-3.4,0.2c-1,0-2-0.1-3-0.2c-1-0.1-2-0.3-3-0.6c-2.7-0.6-4.8-1.8-6.5-3.4
			c-1.7-1.7-3-3.8-3.7-6.5c-0.3-1.2-0.6-2.4-0.8-3.8c-0.2-1.4-0.3-2.8-0.3-4.2c0-1.4,0.1-2.8,0.2-4.2C64.1,33.8,64.3,32.5,64.7,31.4
			L64.7,31.4z M72.4,33.9c-0.2,0.9-0.4,1.8-0.5,2.7c-0.1,0.9-0.1,1.8-0.1,2.7c0,0.9,0.1,1.9,0.2,2.8c0.1,0.9,0.3,1.8,0.5,2.7
			c0.4,1.5,1,2.9,1.8,4c0.8,1.1,2,2,3.5,2.5c0.6,0.2,1.1,0.4,1.8,0.5c0.6,0.1,1.2,0.2,1.9,0.2c0.6,0,1.2,0,1.9-0.2
			c0.6-0.1,1.2-0.3,1.8-0.5c1.5-0.5,2.7-1.4,3.5-2.5c0.9-1.1,1.4-2.5,1.8-4c0.2-0.9,0.4-1.8,0.5-2.7c0.1-0.9,0.2-1.8,0.2-2.8
			c0-0.9-0.1-1.8-0.2-2.7c-0.1-0.9-0.3-1.8-0.5-2.7c-0.3-1.5-0.9-2.9-1.8-4c-0.9-1.2-2-2-3.5-2.5c-0.6-0.2-1.1-0.4-1.8-0.5
			c-0.6-0.1-1.2-0.2-1.9-0.2c-0.6,0-1.2,0.1-1.9,0.2c-0.6,0.1-1.2,0.3-1.8,0.5c-1.5,0.5-2.7,1.4-3.5,2.5
			C73.4,31.1,72.8,32.4,72.4,33.9L72.4,33.9z"/>
		<path d="M110.4,35.9h13.6V21.3h7.4v36h-7.4V42.3h-13.6v15.1H103v-36h7.4V35.9z"/>
		<path d="M139.4,30.9v-9.6h6.8v9.6h7.2v5.3h-7.2v10.7c0,2.6,0.6,4.2,1.8,4.6c1.2,0.4,2.9,0.7,5,0.7c0.1,0,0.1,0,0.2,0s0.2,0,0.2,0
			v5.2h-6.2c-2.6,0-4.5-0.7-5.9-2.2s-2-3.5-2-6v-13h-4.8v-5.3H139.4z"/>
		<path d="M167,57.4c-3.3,0-5.9-0.7-7.9-2c-1.9-1.3-2.9-3.9-2.9-7.6V30.9h6.8v16.2c0,1.8,0.3,3,1,3.6s1.8,0.9,3.5,0.9l5.5,0V30.9
			h6.8v26.5H167z"/>
		<path d="M192,30.9h5.9c2,0,3.9,0.3,5.7,0.8c1.8,0.5,3.3,1.6,4.6,3.3c1.1,1.4,1.8,3,2.3,4.6c0.4,1.7,0.6,3.4,0.5,5.2
			c-0.2,3.9-1.3,6.9-3.5,9.2c-2.2,2.2-5.2,3.3-9.1,3.3h-13.2v-36h6.8V30.9z M196.2,36.6H192v15.1c0.3,0,0.7,0.1,1,0.1
			c0.3,0,0.7,0,1,0c2.3,0.1,4.4-0.1,6.4-0.6c2-0.4,3.1-2.2,3.3-5.2c0-0.4,0.1-0.8,0.1-1.2c0-0.4,0-0.8,0-1.2c0-0.7-0.1-1.5-0.3-2.2
			c-0.2-0.7-0.4-1.4-0.8-2c-0.7-1.3-1.6-2.1-2.8-2.4C198.8,36.8,197.5,36.7,196.2,36.6L196.2,36.6z"/>
		<path d="M220.4,56.7c-1.7-0.5-3.2-1.4-4.5-2.8c-1-1.2-1.8-2.5-2.3-4c-0.5-1.5-0.8-3-0.9-4.6c0-0.2,0-0.3,0-0.5c0-0.2,0-0.3,0-0.5
			c0-0.2,0-0.5,0-0.7c0-0.2,0-0.4,0-0.7c0.1-1.5,0.4-3,0.9-4.4c0.5-1.5,1.2-2.8,2.2-3.9c1.3-1.5,2.8-2.4,4.5-2.9
			c1.7-0.5,3.5-0.7,5.3-0.7l10-0.1v5.5h-9.1c-1.9,0-3.4,0.3-4.6,0.9c-1.1,0.6-1.8,1.9-1.8,4.1l15.4,0v5.5h-15.4
			c0.1,2.3,0.6,3.7,1.7,4.2s2.6,0.8,4.6,0.8l9.1-0.1v5.5h-10C223.9,57.4,222.1,57.1,220.4,56.7z"/>
	</g>
	<path class="st0" d="M43.1,66.2H17.2c-7.4,0-13.3-6-13.3-13.3V29.1c0-7.4,6-13.3,13.3-13.3h25.9c7.4,0,13.3,6,13.3,13.3v23.8
		C56.4,60.2,50.4,66.2,43.1,66.2z"/>
	<g>
		<path class="st1" d="M32.2,31.1c4.4,0,7.9,3.5,7.9,7.9v4.2c0,4.4-3.5,7.9-7.9,7.9H28c-4.4,0-7.9-3.5-7.9-7.9V39
			c0-4.4,3.5-7.9,7.9-7.9H32.2 M32.2,27.1H28c-6.6,0-11.9,5.3-11.9,11.9v4.2c0,6.6,5.3,11.9,11.9,11.9h4.2c6.6,0,11.9-5.3,11.9-11.9
			V39C44.1,32.4,38.8,27.1,32.2,27.1L32.2,27.1z"/>
	</g>
	<g>
		<path class="st1" d="M46.7,22.3c1.2,0,2.2,1,2.2,2.2v1.3c0,1.2-1,2.2-2.2,2.2h-1.3c-1.2,0-2.2-1-2.2-2.2v-1.3c0-1.2,1-2.2,2.2-2.2
			H46.7 M46.7,20.9h-1.3c-2,0-3.6,1.6-3.6,3.6v1.3c0,2,1.6,3.6,3.6,3.6h1.3c2,0,3.6-1.6,3.6-3.6v-1.3C50.3,22.5,48.7,20.9,46.7,20.9
			L46.7,20.9z"/>
	</g>
</g>
</svg>
